<svg width="40" height="41" viewBox="0 0 40 41" fill="none" xmlns="http://www.w3.org/2000/svg">
<path fill-rule="evenodd" clip-rule="evenodd" d="M35.8727 4.60443C36.2187 4.94136 36.3397 5.4475 36.1834 5.9045L25.3544 37.5712C25.1752 38.0952 24.6725 38.4389 24.1191 38.4156C23.5657 38.3923 23.0936 38.0076 22.9591 37.4703L18.9815 21.5829L3.09654 18.5092C2.5465 18.4028 2.13445 17.9433 2.08827 17.385C2.04209 16.8266 2.37305 16.3058 2.89813 16.1104L34.5648 4.32849C35.0175 4.16007 35.5266 4.2675 35.8727 4.60443ZM7.94343 16.9007L20.2382 19.2797C20.715 19.372 21.0953 19.7322 21.2133 20.2034L24.3572 32.761L32.9645 7.59135L7.94343 16.9007Z" fill="#FF431A"/>
<path fill-rule="evenodd" clip-rule="evenodd" d="M25.6057 14.9091C26.0939 15.3972 26.0939 16.1887 25.6057 16.6769L20.8917 21.3909C20.4035 21.879 19.6121 21.879 19.1239 21.3909C18.6358 20.9027 18.6358 20.1112 19.1239 19.6231L23.8379 14.9091C24.3261 14.4209 25.1175 14.4209 25.6057 14.9091Z" fill="#FF431A"/>
</svg>
