<svg width="24" height="24" viewBox="0 0 24 24" fill="none" xmlns="http://www.w3.org/2000/svg">
<path d="M12 12C13.4587 12 14.8576 11.4205 15.8891 10.3891C16.9205 9.35764 17.5 7.95869 17.5 6.5C17.5 5.04131 16.9205 3.64236 15.8891 2.61091C14.8576 1.57946 13.4587 1 12 1C10.5413 1 9.14236 1.57946 8.11091 2.61091C7.07946 3.64236 6.5 5.04131 6.5 6.5C6.5 7.95869 7.07946 9.35764 8.11091 10.3891C9.14236 11.4205 10.5413 12 12 12V12ZM15.6667 6.5C15.6667 7.47246 15.2804 8.40509 14.5927 9.09273C13.9051 9.78036 12.9725 10.1667 12 10.1667C11.0275 10.1667 10.0949 9.78036 9.40728 9.09273C8.71964 8.40509 8.33333 7.47246 8.33333 6.5C8.33333 5.52754 8.71964 4.59491 9.40728 3.90728C10.0949 3.21964 11.0275 2.83333 12 2.83333C12.9725 2.83333 13.9051 3.21964 14.5927 3.90728C15.2804 4.59491 15.6667 5.52754 15.6667 6.5V6.5ZM23 21.1667C23 23 21.1667 23 21.1667 23H2.83333C2.83333 23 1 23 1 21.1667C1 19.3333 2.83333 13.8333 12 13.8333C21.1667 13.8333 23 19.3333 23 21.1667ZM21.1667 21.1593C21.1648 20.7083 20.8843 19.3517 19.6413 18.1087C18.446 16.9133 16.1965 15.6667 12 15.6667C7.80167 15.6667 5.554 16.9133 4.35867 18.1087C3.11567 19.3517 2.837 20.7083 2.83333 21.1593H21.1667Z" fill="white"/>
</svg>
