<svg width="35" height="35" viewBox="0 0 35 35" fill="none" xmlns="http://www.w3.org/2000/svg">
<path fill-rule="evenodd" clip-rule="evenodd" d="M4.703 8.71338C4.703 8.10932 5.19269 7.61963 5.79675 7.61963H29.1301C29.7342 7.61963 30.2239 8.10932 30.2239 8.71338C30.2239 9.31744 29.7342 9.80713 29.1301 9.80713H5.79675C5.19269 9.80713 4.703 9.31744 4.703 8.71338Z" fill="#FF431A"/>
<path fill-rule="evenodd" clip-rule="evenodd" d="M4.703 17.4634C4.703 16.8593 5.19269 16.3696 5.79675 16.3696H29.1301C29.7342 16.3696 30.2239 16.8593 30.2239 17.4634C30.2239 18.0674 29.7342 18.5571 29.1301 18.5571H5.79675C5.19269 18.5571 4.703 18.0674 4.703 17.4634Z" fill="#FF431A"/>
<path fill-rule="evenodd" clip-rule="evenodd" d="M4.703 26.2134C4.703 25.6093 5.19269 25.1196 5.79675 25.1196H29.1301C29.7342 25.1196 30.2239 25.6093 30.2239 26.2134C30.2239 26.8174 29.7342 27.3071 29.1301 27.3071H5.79675C5.19269 27.3071 4.703 26.8174 4.703 26.2134Z" fill="#FF431A"/>
</svg>
