<svg width="154" height="74" viewBox="0 0 154 74" fill="none" xmlns="http://www.w3.org/2000/svg">
<path fill-rule="evenodd" clip-rule="evenodd" d="M31.7019 2.56731V5.13461H16.051H0.400146L0.419188 8.50692L0.438301 11.8792L36.7909 11.9011L73.1435 11.9229V8.52893V5.13505L57.5256 5.11303L41.9079 5.0911L41.9141 2.54555L41.9205 0H36.8112H31.7019V2.56731ZM96.4957 0.195811C96.46 0.303551 96.1692 1.19445 95.8492 2.17568C95.5292 3.15691 95.1781 4.22413 95.0688 4.54718L94.8702 5.13461H87.7644H80.6585V8.52867V11.9227H86.649C91.4128 11.9227 92.6319 11.945 92.6022 12.0315C92.5499 12.1843 91.3371 15.844 90.1439 19.4506C89.3771 21.7682 86.2194 31.2996 83.1595 40.533C83.1308 40.6198 86.1026 40.6417 97.8721 40.6417H112.621L112.595 51.0633C112.566 62.4331 112.584 61.9439 112.141 63.5308C111.631 65.3564 110.429 66.5459 108.493 67.14C108.091 67.2635 107.475 67.3678 106.397 67.4957L105.979 67.5452L105.959 70.7592L105.939 73.9733L106.414 73.9728C107.051 73.9722 109.114 73.7513 110.062 73.5823C116.145 72.4972 119.814 69.6595 121.56 64.6902C122.117 63.1026 122.424 61.6734 122.66 59.5702C122.758 58.6882 122.782 57.1364 122.809 49.5838L122.841 40.6417H136.881H150.921L150.902 37.2694L150.883 33.8971L136.857 33.8751L122.831 33.8532L122.812 28.5664L122.793 23.2798L117.704 23.2574L112.615 23.2351V28.5443V33.8536H104.363C96.533 33.8536 96.113 33.8458 96.1606 33.7013C96.2297 33.4914 98.1154 27.4029 99.7521 22.1049C100.499 19.6877 101.51 16.4177 102 14.8382L102.89 11.9663L128.145 11.9444L153.4 11.9225V8.52859V5.13461H129.287C111.852 5.13461 105.173 5.10815 105.173 5.03923C105.173 4.95977 106.071 2.12407 106.625 0.456893L106.776 0H101.668H96.5602L96.4957 0.195811ZM2.93122 16.5061C2.90437 16.5381 2.88248 21.9815 2.88248 28.6027V40.6413L17.274 40.6633L31.6654 40.6853V50.7804C31.6654 61.6213 31.6659 61.6066 31.2875 63.1818C30.9011 64.7903 30.2286 65.7566 28.9659 66.5179C28.0803 67.0518 27.1066 67.325 25.482 67.4954L24.9895 67.547V70.7736V74L25.9927 73.9421C31.1675 73.6437 35.3833 72.0359 37.7986 69.4396C39.9282 67.1504 41.08 64.4067 41.6437 60.28C41.7954 59.17 41.8009 58.8526 41.8249 49.8884L41.8496 40.6417H56.293H70.7363L70.7179 28.5667L70.6993 16.4917L36.8396 16.4698C18.2167 16.4578 2.95799 16.4741 2.93122 16.5061ZM60.8861 28.5936V33.8536H36.8102H12.7344L12.715 28.5885L12.6957 23.3236L36.7362 23.3016C49.9585 23.2896 60.8014 23.2919 60.8314 23.3067C60.8615 23.3215 60.8861 25.7006 60.8861 28.5936ZM8.35591 49.6708C7.73597 51.5621 6.97389 53.9042 4.3422 62.0069C3.82921 63.5865 3.11369 65.7796 2.75224 66.8805C1.68965 70.117 0.474781 73.876 0.474781 73.9275C0.474781 73.9537 1.77785 73.9649 3.37058 73.9524L6.26632 73.9297L7.48184 71.4746C8.93426 68.541 9.05976 68.2884 12.2949 61.7894C17.8638 50.6019 19.2456 47.8169 19.2792 47.7127C19.307 47.6263 18.2562 47.6039 14.1739 47.6039H9.0335L8.35591 49.6708ZM54.3516 47.7514C54.3776 47.8326 55.2569 49.6243 56.3053 51.7329C60.1761 59.518 60.5695 60.3094 61.6109 62.4067C62.1954 63.5837 63.7243 66.6665 65.0084 69.2572L67.3432 73.9676L70.2511 73.9704C72.5484 73.9726 73.1518 73.9503 73.124 73.8644C73.1046 73.8046 72.679 72.5024 72.178 70.9708C71.6771 69.4391 70.7384 66.5606 70.0921 64.5742C69.4458 62.5878 68.3939 59.357 67.7545 57.3945C67.1151 55.432 66.1923 52.5928 65.7037 51.085C65.2152 49.5773 64.754 48.1772 64.6789 47.9738L64.5423 47.6039H59.4232C54.6406 47.6039 54.3072 47.6136 54.3516 47.7514ZM88.146 49.7579C87.7904 50.8468 86.8994 53.5784 86.1659 55.828C85.4324 58.0777 84.2191 61.7981 83.4698 64.0956C81.3536 70.5838 80.2937 73.8624 80.2937 73.9202C80.2937 73.9493 81.5874 73.9732 83.1687 73.9732H86.0437L86.2437 73.5598C86.4865 73.0584 90.545 64.8848 91.7858 62.3986C92.2754 61.4173 93.102 59.7529 93.6226 58.6999C94.7179 56.4844 98.6974 48.4796 98.9117 48.0608L99.0564 47.778H93.9244H88.7925L88.146 49.7579ZM134.667 47.9738C134.725 48.0814 136.768 52.1837 139.205 57.0899C141.643 61.9961 144.528 67.8019 145.617 69.9917L147.597 73.9732H150.501C153.244 73.9732 153.402 73.9648 153.338 73.8209C153.272 73.6694 152.467 71.2163 151.173 67.2224C150.486 65.1014 148.823 60.0036 147.314 55.3929C146.859 54.0048 146.117 51.7235 145.663 50.3235L144.838 47.778H139.699H134.56L134.667 47.9738Z" fill="#FF431A"/>
</svg>
