<svg width="159" height="74" viewBox="0 0 159 74" fill="none" xmlns="http://www.w3.org/2000/svg">
<path fill-rule="evenodd" clip-rule="evenodd" d="M1.21472 0.120411L0.0766318 0.250041L0.0382418 36.8732L0 73.4961L0.389531 73.6968C0.97648 73.9988 7.17889 73.9581 7.4059 73.6508C7.54414 73.4636 7.588 69.9031 7.588 58.8817C7.588 45.8285 7.61228 44.3466 7.82806 44.2344C7.96007 44.1658 9.34277 44.1081 10.9009 44.106C12.6798 44.1035 14.1927 43.9922 14.9676 43.8065C19.6393 42.6877 23.0795 38.0606 24.2696 31.2949C24.7039 28.826 24.8716 20.3308 24.572 15.9656C24.3655 12.9558 23.9805 10.9937 23.1412 8.67274C21.8465 5.09268 19.5388 2.26409 16.9599 1.0958C14.9664 0.192726 14.2438 0.106447 8.19497 0.0476937C4.98178 0.0164681 1.84066 0.0491262 1.21472 0.120411ZM41.5788 0.0815854C35.2505 1.09601 30.9631 6.52515 30.0585 14.6697C29.8341 16.6907 29.8317 57.0133 30.0559 59.2455C30.6931 65.5882 33.9109 70.7653 38.5439 72.9014C39.8729 73.5139 40.1702 73.5725 42.3507 73.6497C44.5281 73.7268 44.8296 73.6914 46.1475 73.2054C50.2146 71.7055 53.2181 68.1775 54.6528 63.2148C55.4833 60.3419 55.4635 60.9923 55.4635 36.7142V14.2194L55.1201 12.5759C53.6038 5.31722 49.0958 0.484235 43.4756 0.0918607C42.7245 0.0392702 41.8709 0.034747 41.5788 0.0815854ZM110.79 0.245934C105.345 1.92185 101.958 6.49105 100.809 13.7091C100.55 15.3343 100.532 16.8951 100.532 36.8169C100.532 56.7386 100.55 58.2995 100.809 59.9246C101.198 62.3709 101.854 64.552 102.7 66.2111C103.671 68.116 104.013 68.629 105.084 69.7852C109.381 74.4244 115.478 74.968 120.258 71.1385C123.057 68.8965 125.171 64.8973 125.816 60.6229C126.094 58.7794 126.105 57.6934 126.065 36.1484C126.016 10.6623 126.124 12.8705 124.744 9.0836C123.205 4.85746 120.544 1.93602 116.97 0.547299C115.496 -0.0254449 112.195 -0.186499 110.79 0.245934ZM74.5754 0.614681C74.5346 0.758688 74.5197 2.86169 74.5422 5.28825L74.5833 9.6999L81.2601 9.81227C84.9323 9.8741 87.9628 9.94333 87.9946 9.96634C88.1708 10.0935 87.5638 12.9114 86.9459 14.8357C86.8734 15.0617 86.7126 15.6625 86.5886 16.171C86.2012 17.7594 85.3394 21.049 84.2209 25.21C83.6285 27.4132 82.9364 30.0479 82.6827 31.0648C82.4288 32.0817 82.1636 33.0986 82.0928 33.3245C82.0223 33.5505 81.7837 34.4287 81.5628 35.2761C81.342 36.1235 80.7846 38.2498 80.3244 40.0011C79.8643 41.7524 79.4337 43.4164 79.3677 43.6988C79.2403 44.2434 77.5699 50.4908 77.0882 52.2242C76.9311 52.7892 76.5549 54.2221 76.252 55.4084C75.9492 56.5948 75.5965 57.9352 75.4683 58.3872C75.34 58.8391 74.9209 60.3645 74.5369 61.7768L73.8385 64.3447L73.8316 69.1724L73.8246 74H85.0537H96.2828L96.3235 68.8642C96.3603 64.218 96.3394 63.704 96.1048 63.4716C95.9062 63.275 94.2006 63.2148 88.8183 63.2148C82.9778 63.2148 81.7912 63.1674 81.7912 62.934C81.7912 62.6937 82.0755 61.6133 82.5552 60.0307C82.7215 59.4821 84.7921 51.8393 86.3324 46.0878C86.4877 45.5083 86.8655 44.1097 87.172 42.9798C87.4786 41.8499 88.0605 39.6775 88.4654 38.1522C89.188 35.4292 89.7909 33.1996 90.7432 29.7295C91.0066 28.7691 91.4256 27.1975 91.674 26.2371C91.9224 25.2768 92.2549 24.0288 92.4128 23.4638C92.5708 22.8989 93.0502 21.1424 93.4779 19.5606C94.5913 15.445 95.2009 13.2341 95.7723 11.2406L96.2728 9.49446L96.3291 5.1009C96.374 1.59254 96.3444 0.672408 96.1823 0.533331C96.0707 0.437394 91.1801 0.35769 85.3145 0.355841C76.8106 0.353376 74.6346 0.405757 74.5754 0.614681ZM132.777 0.76177L132.398 0.884824L132.36 37.1234C132.333 62.2924 132.37 73.4281 132.481 73.5783C132.724 73.9069 139.399 73.8488 139.645 73.5158C139.793 73.3143 139.823 68.6485 139.785 51.4948C139.745 33.2025 139.77 29.7295 139.945 29.7295C140.059 29.7295 140.242 30.0763 140.351 30.4998C140.461 30.9237 141.233 33.8124 142.068 36.9196C142.902 40.0267 143.64 42.8001 143.707 43.0825C143.774 43.365 144.079 44.5206 144.384 45.6504C144.69 46.7803 145.043 48.1208 145.171 48.6292C145.298 49.1376 145.847 51.2176 146.391 53.2514C146.934 55.2852 147.683 58.1047 148.054 59.5171C148.425 60.9294 149.035 63.2405 149.409 64.6529C149.784 66.0652 150.317 68.099 150.594 69.1724C151.595 73.0458 151.779 73.5462 152.277 73.7391C152.988 74.0148 158.754 73.7523 158.908 73.4371C159.119 73.0047 158.929 1.19811 158.716 0.850518C158.476 0.45876 151.911 0.416238 151.624 0.804709C151.485 0.993295 151.442 6.11326 151.442 22.5975C151.442 38.2461 151.396 44.1232 151.274 44.0682C151.073 43.9772 150.606 42.4586 149.856 39.4536C149.55 38.2294 149.241 37.0428 149.169 36.8169C149.097 36.5909 148.856 35.7127 148.634 34.8653C148.412 34.0179 148.106 32.8623 147.954 32.2974C147.803 31.7324 147.325 29.9298 146.893 28.2915C145.703 23.7843 144.776 20.293 144.466 19.1498C144.313 18.5848 143.948 17.1982 143.656 16.0683C142.392 11.1843 139.876 1.88836 139.676 1.3643C139.556 1.04999 139.337 0.741638 139.19 0.679392C138.84 0.530865 133.269 0.602356 132.777 0.76177ZM62.0622 1.02041C62.061 1.16175 62.0587 17.5936 62.0571 37.5359L62.0539 73.7946L62.3715 73.8973C62.8468 74.0512 69.3046 73.9581 69.4998 73.7946C69.6948 73.6315 69.6395 1.44113 69.444 1.01301C69.2771 0.647343 62.0653 0.654741 62.0622 1.02041ZM14.4397 10.2759C16.1408 11.2945 17.1666 13.2493 17.4591 16.0303C17.7069 18.3851 17.7937 24.008 17.6201 26.4617C17.3476 30.3129 16.7048 32.1821 15.2584 33.3297C14.025 34.3081 13.2962 34.4688 10.3652 34.4078L7.66387 34.3517L7.62472 22.2542C7.59407 12.8081 7.62714 10.089 7.7754 9.84719C7.93701 9.58362 8.38496 9.55445 10.7778 9.65244C13.3362 9.75701 13.6672 9.81329 14.4397 10.2759ZM44.8615 11.1743C46.0885 11.8358 47.0626 13.106 47.4682 14.5738C47.8786 16.0586 48.1478 18.8061 48.0195 20.1977C47.9054 21.4335 47.9078 21.429 44.6896 26.7704C43.6881 28.4326 42.3907 30.5976 41.8064 31.5814C40.6802 33.478 38.6421 36.8493 38.0515 37.7927C37.8571 38.1035 37.6151 38.3576 37.5139 38.3576C37.2811 38.3576 37.2576 21.442 37.4852 17.7117C37.7104 14.0234 38.3825 12.4987 40.3089 11.3047C41.9057 10.315 43.199 10.2778 44.8615 11.1743ZM114.252 11.0619C116.671 11.6242 117.949 13.2666 118.457 16.4658C118.763 18.3936 118.754 57.3927 118.447 58.986C118.116 60.7055 117.787 61.4946 117.001 62.448C114.68 65.2632 110.485 64.5801 108.91 61.1303C108.045 59.2367 108.043 59.1808 108.043 37.6386C108.043 16.2092 108.059 15.7743 108.881 14.0799C109.654 12.486 110.84 11.4689 112.4 11.0642C112.799 10.9606 113.155 10.8653 113.19 10.8528C113.225 10.84 113.703 10.9341 114.252 11.0619ZM48.0639 45.6897C48.1349 54.3447 48.0228 57.4868 47.5711 59.491C47.2541 60.8976 46.2415 62.3939 45.0879 63.161C44.3272 63.6666 44.0693 63.728 42.7169 63.7255C41.3691 63.7229 41.0932 63.6563 40.2492 63.1314C39.1954 62.4757 38.3549 61.3604 37.9313 60.0557C37.5919 59.0095 37.3439 56.6706 37.4275 55.3033C37.5036 54.0606 37.6735 53.7255 41.1995 47.8681C42.6183 45.5109 44.6662 42.087 45.7504 40.2595C46.9195 38.2888 47.7773 37.0116 47.8583 37.1213C47.9336 37.2232 48.026 41.079 48.0639 45.6897Z" fill="#FF431A"/>
</svg>
