<svg width="153" height="74" viewBox="0 0 153 74" fill="none" xmlns="http://www.w3.org/2000/svg">
<path d="M135.809 45.3963C139.186 45.3963 141.933 48.9428 141.933 53.3345C141.933 57.7021 139.186 61.2652 135.809 61.2652C132.437 61.2652 129.683 57.7021 129.683 53.3345C129.683 48.9428 132.437 45.3963 135.809 45.3963ZM151.081 70.614H84.5691V62.6708H111.09V44.2232H92.641V37.8654H111.089V30.2212H95.0617V31.905H84.5698V7.91584H95.0617V10.8108C98.2218 10.3083 104.411 9.30909 111.15 8.3637V1.52822H122.986V6.83302C128.897 6.16495 134.189 5.74689 137.116 5.91246C146.631 6.5052 152.74 8.24366 152.996 16.4509C153.223 24.6382 143.893 32.2154 143.893 32.2154L141.012 28.6243V30.2212H123.044V37.8646H143.679V44.2224H123.044V62.6708H151.081V70.614ZM137.189 23.8575L137.116 23.7623C137.116 23.7623 145.885 17.4749 139.306 13.2322C133.789 9.67251 103.937 15.7621 95.0617 18.412V23.8575H137.189ZM11.6562 16.5527C15.1806 16.5527 18.0371 12.8357 18.0371 8.27429C18.0371 3.69551 15.1806 2.80413e-05 11.6562 2.80413e-05C10.8164 -0.00280589 9.98436 0.209192 9.2079 0.623855C8.43143 1.03852 7.7258 1.64769 7.13148 2.41643C6.53717 3.18517 6.06586 4.09834 5.7446 5.10357C5.42334 6.10881 5.25844 7.18632 5.25937 8.27429C5.25937 12.8357 8.11144 16.5527 11.6562 16.5527ZM33.444 9.43658C35.0544 5.82388 35.8193 3.48027 35.8193 3.48027L26.4509 0.0670834C26.4509 0.0670834 22.6773 16.0394 15.9411 23.4767C15.9411 23.4767 22.4562 28.3585 22.3923 28.2219C24.1709 25.9296 25.8398 23.4986 27.3896 20.9427C28.8882 20.1008 30.3197 19.3036 31.7313 18.5619C29.9963 22.5934 27.1979 28.6532 24.3963 32.477L28.3444 36.9349C28.3444 36.9349 31.0271 33.5963 33.9629 29.5614H37.3153V37.0061H24.2679V42.9699H37.3147V57.2377C37.1549 57.2377 36.9817 57.2377 36.8149 57.2212C35.3835 57.1334 33.1398 56.8271 32.2624 55.0274C31.19 52.8452 31.9812 48.8219 32.0413 46.3707H23.0224L22.7054 46.5859C22.7054 46.5859 19.4015 65.7438 32.2208 65.3125C44.2305 65.7438 51.1009 60.9829 54.4118 57.7146L55.7308 64.0434L63.1329 60.0491L58.1164 44.1686L52.1029 46.5859L53.2302 52.0281C51.6869 53.5257 49.9199 54.6416 47.9983 55.4504V42.9691H60.7473V37.0053H47.9983V29.5605H60.7984V23.6001H38.0675C39.7066 21.0247 41.0001 18.648 41.3234 17.1429L37.369 15.753C54.3696 7.87279 63.8307 9.22465 63.7477 22.1522V56.1996C63.7477 56.1996 64.7497 67.892 54.4112 67.0501L48.815 65.4938L47.4922 72.3706C47.4922 72.3706 71.6623 81.3213 73.6376 57.2659C75.6161 33.2105 73.1474 17.8805 73.1474 17.8805C73.1474 17.8805 70.9427 -4.32543 33.444 9.43658ZM0 64.0442L10.1398 72.244C17.1482 52.5306 16.6996 55.1433 18.4602 48.071C20.27 40.8382 20.6668 35.3223 17.5898 31.3238C13.6456 26.1937 13.2162 25.7169 7.35417 20.0801L3.13453 28.4703L10.9079 34.742C10.9079 34.742 16.1104 38.18 13.6392 44.5958C11.3278 50.7011 0 64.0442 0 64.0442Z" fill="#FF431A"/>
</svg>
