<svg width="16" height="16" viewBox="0 0 16 16" fill="none" xmlns="http://www.w3.org/2000/svg">
<path fill-rule="evenodd" clip-rule="evenodd" d="M15.0196 4.31344C15.2148 4.5087 15.2148 4.82528 15.0196 5.02055L8.3529 11.6872C8.15764 11.8825 7.84106 11.8825 7.6458 11.6872L7.22913 11.2705C7.03387 11.0753 7.03387 10.7587 7.22913 10.5634C7.42439 10.3682 7.74097 10.3682 7.93624 10.5634L7.99935 10.6266L14.3125 4.31344C14.5077 4.11818 14.8243 4.11818 15.0196 4.31344ZM4.31246 7.64677C4.50772 7.45151 4.82431 7.45151 5.01957 7.64677L5.43624 8.06344C5.6315 8.2587 5.6315 8.57528 5.43624 8.77055C5.24097 8.96581 4.92439 8.96581 4.72913 8.77055L4.31246 8.35388C4.1172 8.15862 4.1172 7.84203 4.31246 7.64677Z" fill="#FF431A"/>
<path fill-rule="evenodd" clip-rule="evenodd" d="M11.6875 4.31344C11.8828 4.5087 11.8828 4.82528 11.6875 5.02055L5.02087 11.6872C4.82561 11.8825 4.50903 11.8825 4.31376 11.6872L0.980431 8.35388C0.785169 8.15862 0.785169 7.84203 0.980431 7.64677C1.17569 7.45151 1.49228 7.45151 1.68754 7.64677L4.66732 10.6266L10.9804 4.31344C11.1757 4.11818 11.4923 4.11818 11.6875 4.31344Z" fill="#FF431A"/>
</svg>
