<svg width="40" height="41" viewBox="0 0 40 41" fill="none" xmlns="http://www.w3.org/2000/svg">
<g clip-path="url(#clip0_789_30648)">
<path d="M6.74762 39.8603C5.052 39.8603 3.42399 39.1585 2.12649 37.8598C-0.750386 34.9735 -0.750386 30.2792 2.12583 27.3948L24.5583 3.57358C28.0583 0.0679578 33.4196 0.382958 37.3321 4.30046C39.0852 6.05671 40.069 8.58858 40.0321 11.2498C39.9952 13.883 38.9664 16.403 37.2083 18.1642L20.2545 36.213C19.7827 36.7186 18.9914 36.7417 18.4877 36.2674C17.9852 35.7924 17.9608 34.9999 18.4346 34.4961L35.414 16.4198C36.7421 15.0892 37.504 13.2017 37.532 11.2148C37.5602 9.22671 36.842 7.35229 35.5645 6.07167C33.1645 3.66667 29.257 2.40729 26.352 5.31917L3.92012 29.1404C1.99137 31.0741 1.992 34.1798 3.89512 36.0879C4.78758 36.981 5.84696 37.416 6.97508 37.3478C8.09133 37.2797 9.23883 36.7072 10.2063 35.7372L28.055 16.7397C28.7019 16.0916 30.0019 14.5028 28.6788 13.1766C27.9294 12.426 27.4032 12.4722 27.2301 12.4866C26.7357 12.5303 26.1582 12.8722 25.5588 13.4735L12.1245 27.7616C11.6501 28.266 10.8582 28.2903 10.3575 27.8147C9.85442 27.341 9.83129 26.5472 10.3044 26.0447L23.7632 11.7297C24.8214 10.6666 25.9032 10.0903 27.0045 9.99159C27.8639 9.9153 29.142 10.0985 30.4457 11.406C32.3807 13.3447 32.1401 16.1885 29.8489 18.4847L12.0001 37.4809C10.5751 38.9109 8.85446 39.7415 7.12821 39.8478C7.00133 39.8565 6.87446 39.8603 6.74758 39.8603L6.74762 39.8603Z" fill="#FF431A"/>
</g>
<defs>
<clipPath id="clip0_789_30648">
<rect width="40" height="40" fill="white" transform="translate(0 0.5)"/>
</clipPath>
</defs>
</svg>
