<svg width="12" height="12" viewBox="0 0 12 12" fill="none" xmlns="http://www.w3.org/2000/svg">
<path d="M11.1261 10.773L10.7725 11.1266C10.5772 11.3218 10.2607 11.3218 10.0654 11.1266L5.99954 7.06068L1.93364 11.1265C1.73842 11.3218 1.42183 11.3218 1.22657 11.1265L0.873009 10.773C0.677747 10.5777 0.677747 10.2612 0.873009 10.0659L4.93889 6.00003L0.873009 1.93413C0.677747 1.73891 0.677747 1.42232 0.873009 1.22706L1.22656 0.873505C1.42182 0.678242 1.73842 0.678242 1.93364 0.873505L5.99954 4.93938L10.0654 0.873498C10.2607 0.678235 10.5772 0.678235 10.7725 0.873498L11.1261 1.22705C11.3213 1.42231 11.3213 1.73891 11.1261 1.93413L7.06019 6.00003L11.1261 10.0659C11.3213 10.2612 11.3213 10.5777 11.1261 10.773Z" fill="white"/>
</svg>
