<svg width="478" height="478" viewBox="0 0 478 478" fill="none" xmlns="http://www.w3.org/2000/svg">
<rect width="478" height="478" fill="#FF431A"/>
<path d="M158.7 267.4H66.4C62.14 267.4 59.3 264.56 59.3 260.3V182.2H38V168H66.4C70.66 168 73.5 170.84 73.5 175.1V253.2H153.02L163.67 210.6H87.7V196.4H172.9C177.16 196.4 180.71 200.66 180 204.92L165.8 261.72C165.09 265.27 162.25 267.4 158.7 267.4Z" fill="white"/>
<path d="M73.5 310C81.3424 310 87.7 303.642 87.7 295.8C87.7 287.958 81.3424 281.6 73.5 281.6C65.6576 281.6 59.3 287.958 59.3 295.8C59.3 303.642 65.6576 310 73.5 310Z" fill="white"/>
<path d="M151.6 310C159.442 310 165.8 303.642 165.8 295.8C165.8 287.958 159.442 281.6 151.6 281.6C143.758 281.6 137.4 287.958 137.4 295.8C137.4 303.642 143.758 310 151.6 310Z" fill="white"/>
<path d="M229.413 177.05H238.128L261.202 231H252.985L245.93 214.649H221.113L214.39 231H206.256L229.413 177.05ZM233.231 184.686L223.686 208.175H243.44L233.978 184.686H233.231Z" fill="white"/>
<path d="M268.509 170.41H276.145V218.716C276.145 220.763 276.587 222.23 277.473 223.115C278.358 223.945 279.935 224.36 282.204 224.36V231.332C281.318 231.443 280.654 231.498 280.212 231.498C276.006 231.498 272.991 230.336 271.165 228.012C269.394 225.688 268.509 222.313 268.509 217.886V170.41Z" fill="white"/>
<path d="M288.448 189.5H296.167V231H288.448V189.5ZM288.365 173.066C289.361 172.07 290.689 171.572 292.349 171.572C294.009 171.572 295.31 172.07 296.25 173.066C297.246 174.062 297.744 175.307 297.744 176.801C297.744 178.24 297.246 179.485 296.25 180.536C295.31 181.532 294.009 182.03 292.349 182.03C290.689 182.03 289.361 181.532 288.365 180.536C287.425 179.485 286.954 178.24 286.954 176.801C286.954 175.307 287.425 174.062 288.365 173.066Z" fill="white"/>
<path d="M302.779 194.978V192.073L308.423 188.504L314.482 179.125L317.055 179.54V189.5H333.572L333.323 195.891L317.055 195.144V216.973C317.055 219.961 317.746 222.174 319.13 223.613C320.513 224.996 322.394 225.688 324.774 225.688C327.983 225.688 331.137 224.72 334.236 222.783L336.726 228.344C333.461 230.668 329.2 231.83 323.944 231.83C319.185 231.83 315.533 230.585 312.988 228.095C310.498 225.55 309.253 221.87 309.253 217.056V195.891L302.779 194.978Z" fill="white"/>
<path d="M345.739 198.464L344.079 192.322C349.944 189.887 355.837 188.67 361.758 188.67C367.9 188.67 372.41 189.832 375.287 192.156C378.22 194.425 379.686 198.077 379.686 203.112V220.459C379.686 222.451 380.018 223.807 380.682 224.526C381.401 225.19 382.785 225.522 384.832 225.522V231C383.117 231.553 381.291 231.83 379.354 231.83C377.694 231.83 376.338 231.249 375.287 230.087C374.291 228.87 373.71 227.182 373.544 225.024C369.726 229.561 364.027 231.83 356.446 231.83C351.687 231.83 348.008 230.723 345.407 228.51C342.862 226.241 341.589 223.115 341.589 219.131C341.589 215.534 342.889 212.242 345.49 209.254C352.407 207.096 361.315 205.906 372.216 205.685V203.361C372.216 200.428 371.414 198.326 369.809 197.053C368.204 195.725 365.41 195.061 361.426 195.061C356.225 195.061 350.996 196.195 345.739 198.464ZM372.216 220.044V211.246C363.584 211.412 356.529 212.242 351.051 213.736C349.944 215.064 349.391 216.724 349.391 218.716C349.391 220.929 350.083 222.617 351.466 223.779C352.905 224.941 354.924 225.522 357.525 225.522C363.114 225.522 368.011 223.696 372.216 220.044Z" fill="white"/>
<path d="M429.635 194.646C434.062 198.575 436.275 203.776 436.275 210.25C436.275 216.724 434.062 221.953 429.635 225.937C425.208 229.866 419.703 231.83 413.118 231.83C406.533 231.83 401.028 229.866 396.601 225.937C392.174 221.953 389.961 216.724 389.961 210.25C389.961 203.776 392.174 198.575 396.601 194.646C401.028 190.662 406.533 188.67 413.118 188.67C419.703 188.67 425.208 190.662 429.635 194.646ZM401.664 198.962C398.897 201.729 397.514 205.491 397.514 210.25C397.514 215.009 398.897 218.799 401.664 221.621C404.486 224.388 408.304 225.771 413.118 225.771C417.932 225.771 421.722 224.388 424.489 221.621C427.311 218.799 428.722 215.009 428.722 210.25C428.722 205.491 427.311 201.729 424.489 198.962C421.722 196.14 417.932 194.729 413.118 194.729C408.304 194.729 404.486 196.14 401.664 198.962Z" fill="white"/>
<path d="M262.411 255.702L259.091 261.927C254.941 258.939 250.183 257.445 244.815 257.445C241.053 257.445 238.369 258.192 236.764 259.686C235.215 261.18 234.44 263.006 234.44 265.164C234.44 269.259 237.29 271.887 242.989 273.049L250.708 274.626C255.356 275.567 258.981 277.448 261.581 280.27C264.237 283.037 265.565 286.633 265.565 291.06C265.565 295.763 263.656 299.609 259.838 302.597C256.02 305.585 250.847 307.079 244.317 307.079C240.389 307.079 237.013 306.719 234.191 306C231.425 305.281 228.409 304.036 225.144 302.265L227.8 295.044C233.278 298.419 238.729 300.107 244.151 300.107C248.578 300.107 251.981 299.277 254.36 297.617C256.74 295.957 257.929 293.799 257.929 291.143C257.929 288.266 257.155 286.108 255.605 284.669C254.111 283.175 251.566 282.096 247.969 281.432L239.503 279.855C235.63 279.136 232.559 277.448 230.29 274.792C228.077 272.081 226.97 268.982 226.97 265.496C226.97 261.125 228.547 257.611 231.701 254.955C234.855 252.299 239.227 250.971 244.815 250.971C248.467 250.971 251.621 251.331 254.277 252.05C256.989 252.714 259.7 253.931 262.411 255.702Z" fill="white"/>
<path d="M273.737 245.41H281.456V270.476C285.108 265.939 290.115 263.67 296.479 263.67C302.178 263.67 306.466 265.219 309.344 268.318C312.221 271.417 313.66 275.926 313.66 281.847V306H305.941V281.764C305.941 273.907 302.787 269.978 296.479 269.978C290.503 269.978 285.495 272.413 281.456 277.282V306H273.737V245.41Z" fill="white"/>
<path d="M361.995 269.646C366.422 273.575 368.635 278.776 368.635 285.25C368.635 291.724 366.422 296.953 361.995 300.937C357.568 304.866 352.063 306.83 345.478 306.83C338.893 306.83 333.388 304.866 328.961 300.937C324.534 296.953 322.321 291.724 322.321 285.25C322.321 278.776 324.534 273.575 328.961 269.646C333.388 265.662 338.893 263.67 345.478 263.67C352.063 263.67 357.568 265.662 361.995 269.646ZM334.024 273.962C331.257 276.729 329.874 280.491 329.874 285.25C329.874 290.009 331.257 293.799 334.024 296.621C336.846 299.388 340.664 300.771 345.478 300.771C350.292 300.771 354.082 299.388 356.849 296.621C359.671 293.799 361.082 290.009 361.082 285.25C361.082 280.491 359.671 276.729 356.849 273.962C354.082 271.14 350.292 269.729 345.478 269.729C340.664 269.729 336.846 271.14 334.024 273.962Z" fill="white"/>
<path d="M377.325 325.09V266.077C383.854 264.472 390.134 263.67 396.166 263.67C403.525 263.67 409.197 265.579 413.181 269.397C417.165 273.215 419.157 278.527 419.157 285.333C419.157 291.862 417.331 297.091 413.679 301.02C410.082 304.893 404.825 306.83 397.909 306.83C392.652 306.83 388.364 305.53 385.044 302.929V325.09H377.325ZM385.044 271.306V295.791C388.585 298.834 392.873 300.356 397.909 300.356C402.114 300.356 405.406 299.028 407.786 296.372C410.22 293.716 411.438 290.036 411.438 285.333C411.438 280.242 410.082 276.369 407.371 273.713C404.715 271.057 400.98 269.729 396.166 269.729C391.96 269.729 388.253 270.255 385.044 271.306Z" fill="white"/>
</svg>
