<svg width="125" height="24" viewBox="0 0 125 24" fill="none" xmlns="http://www.w3.org/2000/svg">
<mask id="mask0_112_23313" style="mask-type:luminance" maskUnits="userSpaceOnUse" x="0" y="0" width="24" height="24">
<path d="M23.9481 0H0V24H23.9481V0Z" fill="white"/>
</mask>
<g mask="url(#mask0_112_23313)">
<path d="M20.3559 16.8H4.78962C4.07118 16.8 3.59222 16.32 3.59222 15.6V2.4H0V0H4.78962C5.50807 0 5.98703 0.48 5.98703 1.2V14.4H19.398L21.1941 7.2H8.38184V4.8H22.7507C23.4691 4.8 24.0679 5.52 23.9481 6.24L21.5533 15.84C21.4336 16.44 20.9546 16.8 20.3559 16.8Z" fill="white"/>
<path d="M5.98697 24C7.30958 24 8.38178 22.9254 8.38178 21.6C8.38178 20.2745 7.30958 19.2 5.98697 19.2C4.66436 19.2 3.59216 20.2745 3.59216 21.6C3.59216 22.9254 4.66436 24 5.98697 24Z" fill="white"/>
<path d="M19.1585 24C20.4812 24 21.5533 22.9254 21.5533 21.6C21.5533 20.2745 20.4812 19.2 19.1585 19.2C17.8359 19.2 16.7637 20.2745 16.7637 21.6C16.7637 22.9254 17.8359 24 19.1585 24Z" fill="white"/>
</g>
<path d="M36.2239 6.59161H37.9947L42.6831 17.5775H41.0135L39.58 14.248H34.5374L33.1713 17.5775H31.5186L36.2239 6.59161ZM36.9997 8.14654L35.0602 12.9296H39.074L37.1514 8.14654H36.9997ZM44.1679 5.2395H45.7195V15.0761C45.7195 15.493 45.8094 15.7916 45.9893 15.9719C46.1691 16.1409 46.4895 16.2254 46.9506 16.2254V17.6451C46.7707 17.6676 46.6357 17.6789 46.5459 17.6789C45.6913 17.6789 45.0786 17.4423 44.7076 16.9691C44.3477 16.4958 44.1679 15.8085 44.1679 14.9071V5.2395ZM48.2194 9.12683H49.7878V17.5775H48.2194V9.12683ZM48.2025 5.78035C48.4049 5.57753 48.6747 5.47612 49.012 5.47612C49.3493 5.47612 49.6136 5.57753 49.8047 5.78035C50.007 5.98316 50.1082 6.23669 50.1082 6.54091C50.1082 6.83386 50.007 7.08738 49.8047 7.30147C49.6136 7.50429 49.3493 7.6057 49.012 7.6057C48.6747 7.6057 48.4049 7.50429 48.2025 7.30147C48.0114 7.08738 47.9158 6.83386 47.9158 6.54091C47.9158 6.23669 48.0114 5.98316 48.2025 5.78035ZM51.1312 10.2423V9.65077L52.2781 8.92401L53.5092 7.01415L54.032 7.09866V9.12683H57.3881L57.3375 10.4282L54.032 10.2761V14.7212C54.032 15.3296 54.1725 15.7804 54.4536 16.0733C54.7346 16.355 55.1169 16.4958 55.6004 16.4958C56.2524 16.4958 56.8933 16.2987 57.523 15.9043L58.029 17.0367C57.3655 17.5099 56.4998 17.7465 55.4318 17.7465C54.4648 17.7465 53.7227 17.493 53.2056 16.986C52.6997 16.4677 52.4467 15.7184 52.4467 14.7381V10.4282L51.1312 10.2423ZM59.8603 10.9522L59.523 9.70147C60.7149 9.20571 61.9123 8.95781 63.1152 8.95781C64.3632 8.95781 65.2795 9.19443 65.8642 9.66767C66.4601 10.1296 66.7581 10.8733 66.7581 11.8987V15.4311C66.7581 15.8367 66.8255 16.1127 66.9604 16.2592C67.1067 16.3944 67.3876 16.462 67.8037 16.462V17.5775C67.4551 17.6903 67.0841 17.7465 66.6906 17.7465C66.3533 17.7465 66.0779 17.6282 65.8642 17.3916C65.6618 17.1437 65.5438 16.8001 65.5101 16.3606C64.7343 17.2846 63.5762 17.7465 62.0359 17.7465C61.069 17.7465 60.3212 17.5212 59.7929 17.0705C59.2756 16.6085 59.0171 15.9719 59.0171 15.1606C59.0171 14.4282 59.2814 13.7578 59.8097 13.1494C61.2151 12.7099 63.0254 12.4677 65.2402 12.4226V11.9494C65.2402 11.3522 65.0771 10.924 64.7511 10.6649C64.4251 10.3944 63.8573 10.2592 63.0478 10.2592C61.9909 10.2592 60.9284 10.4902 59.8603 10.9522ZM65.2402 15.3465V13.555C63.4863 13.5888 62.0528 13.7578 60.9397 14.062C60.7149 14.3325 60.6024 14.6705 60.6024 15.0761C60.6024 15.5268 60.7429 15.8705 61.024 16.1071C61.3163 16.3437 61.7268 16.462 62.2551 16.462C63.3906 16.462 64.3857 16.0902 65.2402 15.3465ZM76.9073 10.1747C77.8067 10.9747 78.2565 12.0339 78.2565 13.3522C78.2565 14.6705 77.8067 15.7353 76.9073 16.5465C76.0078 17.3465 74.8891 17.7465 73.5512 17.7465C72.2132 17.7465 71.0945 17.3465 70.1951 16.5465C69.2955 15.7353 68.8459 14.6705 68.8459 13.3522C68.8459 12.0339 69.2955 10.9747 70.1951 10.1747C71.0945 9.36345 72.2132 8.95781 73.5512 8.95781C74.8891 8.95781 76.0078 9.36345 76.9073 10.1747ZM71.2239 11.0536C70.6616 11.617 70.3806 12.3832 70.3806 13.3522C70.3806 14.3212 70.6616 15.093 71.2239 15.6677C71.7973 16.231 72.5731 16.5127 73.5512 16.5127C74.5294 16.5127 75.2994 16.231 75.8617 15.6677C76.4351 15.093 76.7218 14.3212 76.7218 13.3522C76.7218 12.3832 76.4351 11.617 75.8617 11.0536C75.2994 10.4789 74.5294 10.1916 73.5512 10.1916C72.5731 10.1916 71.7973 10.4789 71.2239 11.0536ZM79.216 15.8536C79.4183 15.6395 79.6937 15.5325 80.0423 15.5325C80.3908 15.5325 80.6663 15.6395 80.8687 15.8536C81.0711 16.0564 81.1723 16.3212 81.1723 16.648C81.1723 16.9747 81.0711 17.2339 80.8687 17.4254C80.6775 17.6169 80.4021 17.7127 80.0423 17.7127C79.6937 17.7127 79.4183 17.6169 79.216 17.4254C79.0247 17.2339 78.9293 16.9747 78.9293 16.648C78.9293 16.3212 79.0247 16.0564 79.216 15.8536ZM89.3585 9.48176L88.8694 10.6987C88.1161 10.3494 87.2673 10.1747 86.3228 10.1747C85.6145 10.1747 85.0859 10.2761 84.7375 10.4789C84.3889 10.6818 84.2147 10.9522 84.2147 11.2902C84.2147 11.6846 84.3889 11.9663 84.7375 12.1353C85.0859 12.293 85.6594 12.4113 86.4577 12.4902C87.5595 12.6029 88.3859 12.8677 88.9369 13.2846C89.499 13.7015 89.7801 14.3268 89.7801 15.1606C89.7801 16.017 89.4259 16.6649 88.7176 17.1043C88.0093 17.5324 87.0254 17.7465 85.7663 17.7465C84.6082 17.7465 83.585 17.5551 82.6969 17.1719L83.0848 15.8874C83.9167 16.2818 84.7881 16.4789 85.6988 16.4789C87.4415 16.4789 88.3129 16.0339 88.3129 15.1437C88.3129 14.7268 88.1442 14.4282 87.8069 14.248C87.4808 14.0677 86.8794 13.9325 86.0024 13.8423C84.8893 13.7296 84.0629 13.4818 83.5233 13.0987C82.9947 12.7156 82.7306 12.1522 82.7306 11.4085C82.7306 10.6987 83.0397 10.1127 83.6582 9.65077C84.2764 9.1888 85.1703 8.95781 86.3397 8.95781C87.4528 8.95781 88.4589 9.13245 89.3585 9.48176ZM91.419 5.2395H92.9875V10.3437C93.7295 9.41978 94.7472 8.95781 96.04 8.95781C97.1981 8.95781 98.0695 9.27331 98.6541 9.90429C99.2388 10.5353 99.531 11.4536 99.531 12.6592V17.5775H97.9626V12.6423C97.9626 11.0423 97.3217 10.2423 96.04 10.2423C94.8257 10.2423 93.8083 10.7381 92.9875 11.7296V17.5775H91.419V5.2395ZM109.352 10.1747C110.252 10.9747 110.702 12.0339 110.702 13.3522C110.702 14.6705 110.252 15.7353 109.352 16.5465C108.453 17.3465 107.334 17.7465 105.996 17.7465C104.658 17.7465 103.54 17.3465 102.64 16.5465C101.741 15.7353 101.291 14.6705 101.291 13.3522C101.291 12.0339 101.741 10.9747 102.64 10.1747C103.54 9.36345 104.658 8.95781 105.996 8.95781C107.334 8.95781 108.453 9.36345 109.352 10.1747ZM103.669 11.0536C103.107 11.617 102.826 12.3832 102.826 13.3522C102.826 14.3212 103.107 15.093 103.669 15.6677C104.242 16.231 105.018 16.5127 105.996 16.5127C106.975 16.5127 107.745 16.231 108.307 15.6677C108.88 15.093 109.167 14.3212 109.167 13.3522C109.167 12.3832 108.88 11.617 108.307 11.0536C107.745 10.4789 106.975 10.1916 105.996 10.1916C105.018 10.1916 104.242 10.4789 103.669 11.0536ZM112.467 21.4649V9.44795C113.794 9.1212 115.07 8.95781 116.296 8.95781C117.791 8.95781 118.943 9.34654 119.753 10.124C120.562 10.9015 120.967 11.9832 120.967 13.3691C120.967 14.6987 120.596 15.7635 119.854 16.5634C119.123 17.3522 118.055 17.7465 116.65 17.7465C115.582 17.7465 114.71 17.4817 114.036 16.9522V21.4649H112.467ZM114.036 10.5127V15.4987C114.755 16.1184 115.627 16.4282 116.65 16.4282C117.504 16.4282 118.173 16.1578 118.657 15.617C119.151 15.0761 119.399 14.3268 119.399 13.3691C119.399 12.3325 119.123 11.5437 118.572 11.0029C118.033 10.462 117.274 10.1916 116.296 10.1916C115.441 10.1916 114.688 10.2987 114.036 10.5127Z" fill="white"/>
</svg>
