<svg width="178" height="36" viewBox="0 0 178 36" fill="none" xmlns="http://www.w3.org/2000/svg">
<g clip-path="url(#clip0_506_29217)">
<mask id="mask0_506_29217" style="mask-type:luminance" maskUnits="userSpaceOnUse" x="0" y="0" width="35" height="36">
<path d="M34.1568 0.5H0V35.5H34.1568V0.5Z" fill="white"/>
</mask>
<g mask="url(#mask0_506_29217)">
<path d="M29.0332 25H6.83135C5.80665 25 5.12351 24.3 5.12351 23.25V4H0V0.5H6.83135C7.85605 0.5 8.53919 1.2 8.53919 2.25V21.5H27.667L30.2287 11H11.9549V7.5H32.4489C33.4736 7.5 34.3275 8.55 34.1568 9.6L30.7411 23.6C30.5703 24.475 29.8872 25 29.0332 25Z" fill="#FF431A"/>
<path d="M8.53915 35.5C10.4256 35.5 11.9548 33.9329 11.9548 32C11.9548 30.0671 10.4256 28.5 8.53915 28.5C6.65273 28.5 5.12347 30.0671 5.12347 32C5.12347 33.9329 6.65273 35.5 8.53915 35.5Z" fill="#FF431A"/>
<path d="M27.3254 35.5C29.212 35.5 30.7411 33.9329 30.7411 32C30.7411 30.0671 29.212 28.5 27.3254 28.5C25.4391 28.5 23.9099 30.0671 23.9099 32C23.9099 33.9329 25.4391 35.5 27.3254 35.5Z" fill="#FF431A"/>
</g>
<path d="M51.6655 10.1127H54.1912L60.8782 26.1338H58.4968L56.4522 21.2782H49.2601L47.3117 26.1338H44.9544L51.6655 10.1127ZM52.772 12.3803L50.0058 19.3557H55.7306L52.9885 12.3803H52.772ZM62.9959 8.14087H65.2089V22.4859C65.2089 23.0939 65.3371 23.5294 65.5937 23.7923C65.8502 24.0388 66.3072 24.162 66.9648 24.162V26.2324C66.7082 26.2652 66.5157 26.2817 66.3875 26.2817C65.1687 26.2817 64.2948 25.9366 63.7656 25.2465C63.2523 24.5564 62.9959 23.554 62.9959 22.2395V8.14087ZM68.7744 13.8099H71.0114V26.1338H68.7744V13.8099ZM68.7504 8.9296C69.039 8.63383 69.4239 8.48594 69.905 8.48594C70.386 8.48594 70.763 8.63383 71.0355 8.9296C71.3241 9.22538 71.4685 9.59509 71.4685 10.0388C71.4685 10.466 71.3241 10.8357 71.0355 11.1479C70.763 11.4437 70.386 11.5916 69.905 11.5916C69.4239 11.5916 69.039 11.4437 68.7504 11.1479C68.4778 10.8357 68.3414 10.466 68.3414 10.0388C68.3414 9.59509 68.4778 9.22538 68.7504 8.9296ZM72.9276 15.4366V14.574L74.5633 13.5141L76.3192 10.7289L77.0649 10.8521V13.8099H81.8516L81.7795 15.7078L77.0649 15.4859V21.9683C77.0649 22.8557 77.2652 23.5129 77.6662 23.9402C78.067 24.351 78.6123 24.5564 79.3019 24.5564C80.2318 24.5564 81.1459 24.2688 82.0441 23.6937L82.7657 25.3451C81.8194 26.0352 80.5847 26.3803 79.0614 26.3803C77.6821 26.3803 76.6237 26.0106 75.8862 25.2712C75.1646 24.5153 74.8038 23.4226 74.8038 21.993V15.7078L72.9276 15.4366ZM85.3777 16.4719L84.8966 14.6479C86.5965 13.9249 88.3044 13.5634 90.0202 13.5634C91.8002 13.5634 93.107 13.9085 93.941 14.5986C94.7908 15.2723 95.2158 16.3568 95.2158 17.8521V23.0035C95.2158 23.5951 95.312 23.9977 95.5045 24.2113C95.713 24.4085 96.1138 24.5071 96.7072 24.5071V26.1338C96.21 26.2982 95.6808 26.3803 95.1196 26.3803C94.6385 26.3803 94.2457 26.2078 93.941 25.8627C93.6523 25.5011 93.4839 25 93.4358 24.3592C92.3293 25.7067 90.6776 26.3803 88.4807 26.3803C87.1017 26.3803 86.0351 26.0517 85.2815 25.3944C84.5438 24.7207 84.175 23.7923 84.175 22.6092C84.175 21.5411 84.5519 20.5634 85.3056 19.6761C87.31 19.0352 89.8919 18.682 93.051 18.6162V17.9261C93.051 17.0552 92.8184 16.4308 92.3534 16.0528C91.8884 15.6585 91.0785 15.4613 89.9239 15.4613C88.4165 15.4613 86.9011 15.7982 85.3777 16.4719ZM93.051 22.8803V20.2676C90.5493 20.3169 88.5048 20.5634 86.9172 21.0071C86.5965 21.4014 86.4361 21.8944 86.4361 22.4859C86.4361 23.1432 86.6365 23.6444 87.0375 23.9895C87.4543 24.3345 88.0398 24.5071 88.7934 24.5071C90.413 24.5071 91.8321 23.9648 93.051 22.8803ZM109.692 15.3381C110.974 16.5047 111.616 18.0493 111.616 19.9719C111.616 21.8944 110.974 23.4472 109.692 24.6303C108.409 25.7969 106.813 26.3803 104.905 26.3803C102.996 26.3803 101.401 25.7969 100.118 24.6303C98.835 23.4472 98.1937 21.8944 98.1937 19.9719C98.1937 18.0493 98.835 16.5047 100.118 15.3381C101.401 14.155 102.996 13.5634 104.905 13.5634C106.813 13.5634 108.409 14.155 109.692 15.3381ZM101.585 16.6197C100.783 17.4413 100.383 18.5587 100.383 19.9719C100.383 21.385 100.783 22.5106 101.585 23.3486C102.403 24.1702 103.51 24.581 104.905 24.581C106.3 24.581 107.398 24.1702 108.2 23.3486C109.018 22.5106 109.427 21.385 109.427 19.9719C109.427 18.5587 109.018 17.4413 108.2 16.6197C107.398 15.7817 106.3 15.3627 104.905 15.3627C103.51 15.3627 102.403 15.7817 101.585 16.6197ZM112.984 23.6197C113.273 23.3075 113.666 23.1514 114.163 23.1514C114.66 23.1514 115.053 23.3075 115.342 23.6197C115.63 23.9155 115.775 24.3017 115.775 24.7782C115.775 25.2546 115.63 25.6327 115.342 25.912C115.069 26.1913 114.676 26.331 114.163 26.331C113.666 26.331 113.273 26.1913 112.984 25.912C112.712 25.6327 112.575 25.2546 112.575 24.7782C112.575 24.3017 112.712 23.9155 112.984 23.6197ZM127.45 14.3275L126.753 16.1021C125.678 15.5927 124.468 15.3381 123.121 15.3381C122.11 15.3381 121.357 15.4859 120.86 15.7817C120.362 16.0775 120.114 16.4719 120.114 16.9648C120.114 17.5399 120.362 17.9507 120.86 18.1972C121.357 18.4272 122.174 18.5998 123.313 18.7148C124.885 18.8791 126.063 19.2653 126.849 19.8733C127.651 20.4813 128.052 21.3932 128.052 22.6092C128.052 23.858 127.547 24.8028 126.536 25.4437C125.526 26.068 124.123 26.3803 122.327 26.3803C120.675 26.3803 119.216 26.101 117.949 25.5423L118.502 23.669C119.689 24.2441 120.932 24.5317 122.231 24.5317C124.716 24.5317 125.959 23.8827 125.959 22.5845C125.959 21.9765 125.719 21.5411 125.237 21.2782C124.772 21.0153 123.914 20.8181 122.664 20.6866C121.076 20.5223 119.897 20.1608 119.128 19.6021C118.374 19.0434 117.997 18.2219 117.997 17.1373C117.997 16.1021 118.438 15.2477 119.32 14.574C120.202 13.9003 121.477 13.5634 123.145 13.5634C124.732 13.5634 126.167 13.8181 127.45 14.3275ZM130.389 8.14087H132.626V15.5845C133.685 14.2371 135.136 13.5634 136.98 13.5634C138.632 13.5634 139.875 14.0235 140.709 14.9437C141.542 15.8639 141.959 17.2031 141.959 18.9613V26.1338H139.722V18.9366C139.722 16.6033 138.808 15.4366 136.98 15.4366C135.248 15.4366 133.797 16.1596 132.626 17.6057V26.1338H130.389V8.14087ZM155.967 15.3381C157.25 16.5047 157.892 18.0493 157.892 19.9719C157.892 21.8944 157.25 23.4472 155.967 24.6303C154.684 25.7969 153.089 26.3803 151.181 26.3803C149.272 26.3803 147.677 25.7969 146.394 24.6303C145.111 23.4472 144.47 21.8944 144.47 19.9719C144.47 18.0493 145.111 16.5047 146.394 15.3381C147.677 14.155 149.272 13.5634 151.181 13.5634C153.089 13.5634 154.684 14.155 155.967 15.3381ZM147.861 16.6197C147.059 17.4413 146.659 18.5587 146.659 19.9719C146.659 21.385 147.059 22.5106 147.861 23.3486C148.679 24.1702 149.786 24.581 151.181 24.581C152.576 24.581 153.674 24.1702 154.476 23.3486C155.294 22.5106 155.703 21.385 155.703 19.9719C155.703 18.5587 155.294 17.4413 154.476 16.6197C153.674 15.7817 152.576 15.3627 151.181 15.3627C149.786 15.3627 148.679 15.7817 147.861 16.6197ZM160.41 31.8028V14.2782C162.302 13.8017 164.122 13.5634 165.87 13.5634C168.003 13.5634 169.647 14.1303 170.801 15.2641C171.956 16.3979 172.533 17.9754 172.533 19.9965C172.533 21.9355 172.004 23.4883 170.946 24.655C169.903 25.8053 168.38 26.3803 166.375 26.3803C164.852 26.3803 163.609 25.9941 162.647 25.2219V31.8028H160.41ZM162.647 15.831V23.1021C163.673 24.0059 164.916 24.4578 166.375 24.4578C167.594 24.4578 168.548 24.0634 169.238 23.2747C169.943 22.4859 170.296 21.3932 170.296 19.9965C170.296 18.4848 169.903 17.3345 169.118 16.5458C168.348 15.7571 167.265 15.3627 165.87 15.3627C164.651 15.3627 163.577 15.5188 162.647 15.831Z" fill="#FF431A"/>
</g>
<defs>
<clipPath id="clip0_506_29217">
<rect width="178" height="35" fill="white" transform="translate(0 0.5)"/>
</clipPath>
</defs>
</svg>
