<svg width="154" height="74" viewBox="0 0 154 74" fill="none" xmlns="http://www.w3.org/2000/svg">
<path d="M59.8374 30.7919C58.0203 28.8054 56.2032 27.3154 54.3861 26.3222C52.2056 25.3289 50.3885 24.8322 48.2079 24.8322C44.9371 24.8322 42.0298 25.8255 39.8493 27.3154C40.9395 24.8322 42.0298 22.349 43.4835 20.3624C44.9371 18.3758 46.7542 16.8859 48.9348 15.396C51.1153 13.906 53.6592 13.4094 56.2032 12.9128H57.6569L60.2008 0H56.2032C51.4787 0.496644 46.3908 1.98658 42.7566 4.4698C39.1224 6.95302 35.8516 10.4295 33.6711 13.906C31.1272 17.8792 29.6735 22.349 28.2198 27.3154C27.1295 32.2819 26.4027 37.745 26.4027 43.2081C26.4027 48.1745 26.7661 52.6443 27.8564 56.1208C28.5832 59.5973 30.0369 62.5772 31.854 65.0604C33.6711 67.5436 35.8516 69.0336 38.0322 70.5235C40.5761 71.5168 43.12 72.0134 46.0274 72.0134C48.5713 72.0134 50.7519 71.5168 52.9324 70.5235C55.1129 69.5302 57.2934 68.0403 59.1105 66.0537C60.9276 64.0671 62.3813 61.5839 63.4716 58.604C64.5619 55.6242 65.2887 52.1476 65.2887 48.1745C65.2887 44.2013 64.9253 40.7248 63.835 37.745C62.7447 35.2617 61.6545 32.7785 59.8374 30.7919ZM43.12 39.2349C44.2103 38.7383 45.3006 38.2416 46.3908 38.2416C47.4811 38.2416 48.5714 38.2416 49.6616 38.7383C50.7519 39.2349 51.4787 39.7315 51.8421 40.7248C52.569 41.7181 52.9324 42.7114 53.2958 43.7047C53.6592 45.1946 54.0227 46.6846 54.0227 48.6711C54.0227 50.6577 53.6592 52.1477 53.2958 53.6376C52.9324 55.1275 52.2056 56.1208 51.4787 57.1141C50.7519 58.1074 50.025 58.604 48.9348 59.1007C47.8445 59.5973 46.7542 60.094 45.664 60.094C43.12 60.094 41.3029 59.1007 39.8493 57.6107C38.3956 56.1208 38.0322 53.1409 38.0322 49.1678C38.0322 47.1812 38.3956 45.6913 38.759 44.2013C39.1224 42.7114 39.8493 41.7181 40.5761 40.7248C41.3029 40.2282 42.0298 39.2349 43.12 39.2349ZM104.902 39.2349C103.811 37.745 102.358 36.255 100.904 35.2617C100.904 35.2617 100.54 35.2617 100.54 34.7651C101.631 33.7718 102.721 32.2819 103.811 30.7919C105.628 27.8121 106.719 24.3356 106.719 19.8658C106.719 16.8859 106.355 14.4027 105.265 11.9195C104.175 9.43624 103.084 7.94631 101.631 5.95973C100.177 4.4698 98.3599 3.47651 96.1794 2.48322C93.9989 1.98657 91.8184 1.98658 89.2744 1.98658C87.0939 1.98658 84.55 2.48322 82.7329 2.97986C80.5524 3.97315 78.7353 4.96644 77.2816 6.45638C75.8279 7.94631 74.3742 9.93289 73.6474 12.4161C72.5571 14.8993 72.1937 17.3826 72.1937 20.3624C72.1937 24.8322 73.2839 28.3087 75.101 31.2886C76.1913 32.7785 76.9181 33.7718 78.3718 35.2617C78.0084 35.2617 78.0084 35.7584 77.645 35.7584C76.1913 36.7517 75.101 38.2416 74.0108 39.7315C72.9205 41.2215 71.8303 43.2081 71.1034 45.6913C70.3766 47.6779 70.0132 50.6577 70.0132 53.6376C70.0132 57.1141 70.74 60.5906 71.8303 63.0738C72.9205 65.557 74.3742 68.0403 76.5547 69.5302C78.3718 71.0201 80.5524 72.0134 82.7329 73.0067C84.9134 73.5034 87.4573 74 89.6379 74C91.8184 74 94.3623 73.5034 96.5428 73.0067C98.7234 72.5101 100.904 71.0201 102.721 69.5302C104.538 68.0403 106.355 65.557 107.445 63.0738C108.536 60.5906 109.263 57.1141 109.263 53.6376C109.263 50.6577 108.899 48.1745 108.172 45.6913C107.082 42.7114 106.355 40.7248 104.902 39.2349ZM95.4526 23.3423C95.0892 24.3356 94.7257 24.8322 93.9989 25.3289C93.2721 25.8255 92.5452 26.8188 91.8184 27.3154C91.0915 27.8121 90.3647 28.3087 89.2744 28.8054C88.5476 28.3087 87.8207 27.8121 86.7305 27.3154C86.0036 26.8188 84.9134 26.3221 84.55 25.3289C83.8231 24.8322 83.4597 23.8389 83.0963 23.3423C82.7329 22.349 82.7329 21.8524 82.7329 20.3624C82.7329 18.3758 83.0963 16.8859 84.1866 15.8926C85.2768 14.8993 87.0939 13.906 89.2744 13.906C91.455 13.906 93.2721 14.4027 94.3623 15.8926C95.4526 16.8859 95.816 18.3758 95.816 20.3624C95.816 21.8524 95.816 22.8456 95.4526 23.3423ZM81.6426 48.6711C82.006 47.6779 82.7329 46.6846 83.4597 45.6913C84.1866 44.698 85.2768 43.7047 86.3671 43.2081L89.6379 41.7181L92.9086 43.2081C93.9989 43.7047 95.0892 44.698 95.816 45.6913C96.5428 46.6846 97.2697 47.6779 97.6331 48.6711C97.9965 49.6644 98.3599 50.6577 98.3599 52.1477C98.3599 54.6309 97.6331 56.6175 96.5428 58.1074C95.0892 59.5973 92.9086 60.5906 90.3647 60.5906C87.4573 60.5906 85.2768 59.5973 84.1866 58.1074C82.7329 56.6175 82.3694 54.6309 82.3694 52.1477C81.2792 50.6577 81.2792 49.6644 81.6426 48.6711ZM152.146 45.1946C151.419 43.2081 150.329 41.2215 149.239 39.2349C148.149 37.745 146.695 36.255 145.241 35.2617C145.241 35.2617 144.878 35.2617 144.878 34.7651C145.968 33.7718 147.058 32.2819 148.149 30.7919C149.966 27.8121 151.056 24.3356 151.056 19.8658C151.056 16.8859 150.692 14.4027 149.602 12.4161C148.512 9.93289 147.422 8.44295 145.968 6.45638C144.514 4.96644 142.697 3.97315 140.517 2.97986C138.336 1.98657 135.792 1.98658 133.612 1.98658C131.431 1.98658 128.887 2.48322 127.07 2.97986C124.89 3.97315 123.073 4.96644 121.619 6.45638C120.165 7.94631 118.711 9.93289 117.985 12.4161C116.894 14.8993 116.531 17.3826 116.531 19.8658C116.531 24.3356 117.621 27.8121 119.438 30.7919C120.529 32.2819 121.255 33.2752 122.709 34.7651C122.346 34.7651 122.346 35.2617 121.982 35.2617C120.529 36.255 119.438 37.745 118.348 39.2349C117.258 40.7248 116.168 42.7114 115.441 45.1946C114.714 47.6779 114.35 50.1611 114.35 53.1409C114.35 56.6175 115.077 60.094 116.168 62.5772C117.258 65.0604 118.711 67.5436 120.892 69.0336C122.709 70.5235 124.89 71.5168 127.07 72.5101C129.251 73.0067 131.795 73.5033 133.975 73.5033C136.156 73.5033 138.7 73.0067 140.88 72.5101C143.061 72.0134 145.241 70.5235 147.058 69.0336C148.875 67.5436 150.692 65.0604 151.783 62.5772C152.873 60.094 153.6 56.6175 153.6 53.1409C153.236 49.6644 152.873 47.1812 152.146 45.1946ZM139.79 23.3423C139.426 24.3356 139.063 24.8322 138.336 25.3289C137.609 25.8255 136.883 26.8188 136.156 27.3154C135.429 27.8121 134.702 28.3087 133.612 28.3087C132.885 27.8121 132.158 27.3154 131.068 26.8188C130.341 26.3222 129.251 25.8255 128.887 24.8322C128.16 24.3356 127.797 23.3423 127.434 22.8456C127.07 21.8523 127.07 21.3557 127.07 19.8658C127.07 17.8792 127.434 16.3893 128.524 15.396C129.614 14.4027 131.431 13.4094 133.612 13.4094C135.792 13.4094 137.609 13.906 138.7 15.396C139.79 16.3893 140.153 17.8792 140.153 19.8658C140.153 21.8524 139.79 22.8456 139.79 23.3423ZM125.98 48.6711C126.343 47.6779 127.07 46.6846 127.797 45.6913C128.524 44.698 129.614 43.7047 130.704 43.2081L133.975 41.7181L137.246 43.2081C138.336 43.7047 139.063 44.698 140.153 45.6913C140.88 46.6846 141.607 47.6779 141.97 48.6711C142.334 49.6644 142.697 50.6577 142.697 52.1477C142.697 54.6309 141.97 56.6175 140.88 58.1074C139.426 59.5973 137.246 60.5906 134.702 60.5906C131.795 60.5906 129.614 59.5973 128.524 58.1074C127.07 56.6175 126.707 54.6309 126.707 52.1477C125.253 50.6577 125.616 49.6644 125.98 48.6711ZM4.23406 21.3557L9.68536 18.8725V72.5101H20.588V0.496644L0.599854 9.43624L4.23406 21.3557Z" fill="#FF431A"/>
</svg>
