<svg width="800" height="800" viewBox="0 0 800 800" fill="none" xmlns="http://www.w3.org/2000/svg">
<path d="M116.159 308V492H72V308H116.159ZM137.896 344.111V308H292.297V344.111H236.907V492H193.39V344.132H137.917L137.896 344.111ZM381.381 492H313.869V308H381.299C399.907 308 415.946 311.674 429.374 319.042C442.864 326.348 453.287 336.889 460.581 350.665C467.896 364.379 471.543 380.786 471.543 399.906C471.543 419.026 467.896 435.537 460.581 449.314C453.329 463.09 442.947 473.652 429.457 481.021C415.967 488.326 399.928 491.979 381.381 491.979V492ZM358.007 454.094H379.682C389.919 454.094 398.56 452.361 405.647 448.875C412.775 445.348 418.163 439.628 421.79 431.717C425.478 423.744 427.322 413.14 427.322 399.906C427.322 386.672 425.478 376.131 421.79 368.283C418.101 360.372 412.672 354.694 405.46 351.208C398.332 347.681 389.525 345.906 379.06 345.906H358.007V454.073V454.094ZM497.322 492V308H572.771C586.448 308 598.259 310.484 608.185 315.452C618.173 320.357 625.882 327.433 631.29 336.659C636.699 345.823 639.413 356.698 639.413 369.264C639.413 381.83 636.657 392.872 631.125 401.785C625.592 410.656 617.738 417.419 607.584 422.095C597.41 426.708 585.37 429.004 571.465 429.004H523.742V393.957H563.26C569.911 393.957 575.486 393.08 579.941 391.348C584.458 389.553 587.877 386.86 590.198 383.27C592.519 379.617 593.68 374.941 593.68 369.264C593.68 363.586 592.519 358.869 590.198 355.153C587.877 351.375 584.458 348.557 579.941 346.699C575.423 344.779 569.87 343.819 563.26 343.819H541.501V491.979H497.342L497.322 492ZM600.166 407.901L645.651 492H597.492L552.898 407.901H600.166Z" fill="#6000DB"/>
<path d="M672.029 309.294H727.295V321.672H720.415V322.048C721.638 322.569 722.819 323.279 723.959 324.218C725.099 325.179 726.01 326.389 726.736 327.85C727.461 329.333 727.834 331.107 727.834 333.173C727.834 335.908 727.109 338.454 725.637 340.813C724.166 343.193 721.907 345.134 718.861 346.595C715.815 348.056 711.919 348.787 707.195 348.787C702.47 348.787 698.823 348.077 695.756 346.658C692.689 345.259 690.389 343.36 688.856 340.98C687.322 338.621 686.556 335.97 686.556 333.09C686.556 331.107 686.887 329.395 687.55 327.955C688.213 326.515 689.084 325.283 690.161 324.302C691.239 323.321 692.399 322.59 693.642 322.048V321.797H672.05V309.294H672.029ZM707.195 321.526C705.04 321.526 703.154 321.797 701.538 322.361C699.942 322.945 698.678 323.759 697.787 324.845C696.917 325.93 696.481 327.245 696.481 328.748C696.481 330.251 696.917 331.587 697.787 332.651C698.678 333.716 699.921 334.53 701.538 335.073C703.133 335.636 705.019 335.908 707.195 335.908C709.371 335.908 711.236 335.636 712.831 335.073C714.427 334.53 715.649 333.716 716.52 332.651C717.39 331.587 717.825 330.293 717.825 328.748C717.825 327.203 717.39 325.909 716.54 324.845C715.691 323.78 714.468 322.945 712.873 322.361C711.277 321.797 709.391 321.526 707.195 321.526Z" fill="#6000DB"/>
<path d="M686.535 352.335H726.736V364.484H719.4V364.901C722.053 365.611 724.021 366.78 725.306 368.408C726.612 370.036 727.275 371.915 727.275 374.065C727.275 374.649 727.233 375.234 727.151 375.86C727.088 376.465 726.964 377.05 726.819 377.572H715.691C715.898 376.966 716.064 376.194 716.189 375.213C716.313 374.253 716.375 373.397 716.375 372.666C716.375 371.184 716.043 369.848 715.36 368.659C714.697 367.49 713.764 366.55 712.562 365.882C711.381 365.214 709.972 364.88 708.376 364.88H686.556V352.377L686.535 352.335Z" fill="#6000DB"/>
<path d="M686.535 401.388C686.535 397.255 687.405 393.727 689.125 390.763C690.866 387.82 693.291 385.545 696.399 383.938C699.528 382.351 703.134 381.558 707.257 381.558C711.381 381.558 715.007 382.351 718.116 383.938C721.245 385.545 723.669 387.82 725.389 390.763C727.13 393.727 728 397.276 728 401.388C728 405.5 727.13 409.049 725.389 411.992C723.669 414.956 721.245 417.231 718.116 418.817C715.007 420.425 711.381 421.218 707.257 421.218C703.134 421.218 699.528 420.425 696.399 418.817C693.291 417.231 690.866 414.956 689.125 411.992C687.405 409.049 686.535 405.5 686.535 401.388ZM696.192 401.471C696.192 402.974 696.668 404.248 697.601 405.27C698.533 406.314 699.86 407.107 701.517 407.65C703.196 408.214 705.123 408.485 707.319 408.485C709.516 408.485 711.505 408.214 713.184 407.65C714.862 407.107 716.168 406.314 717.1 405.27C718.033 404.227 718.509 402.953 718.509 401.471C718.509 399.989 718.033 398.612 717.1 397.526C716.168 396.462 714.842 395.669 713.184 395.105C711.505 394.562 709.557 394.291 707.319 394.291C705.081 394.291 703.175 394.562 701.517 395.105C699.839 395.669 698.533 396.483 697.601 397.526C696.668 398.591 696.192 399.906 696.192 401.471Z" fill="#6000DB"/>
<path d="M725.243 466.179C725.243 472.65 722.985 478.182 718.467 482.795C713.95 487.345 708.479 489.599 702.055 489.537C695.756 489.599 690.368 487.345 685.913 482.795C681.395 478.182 679.137 472.65 679.137 466.179C679.137 460.063 681.395 454.678 685.913 450.002C690.368 445.264 695.756 442.884 702.055 442.822C706.345 442.884 710.241 444.012 713.743 446.245C717.245 448.395 720.042 451.255 722.135 454.782C724.207 458.247 725.264 462.067 725.264 466.2L725.243 466.179Z" fill="#6000DB"/>
</svg>
