<svg width="154" height="74" viewBox="0 0 154 74" fill="none" xmlns="http://www.w3.org/2000/svg">
<path d="M91.9746 62.9425C85.7279 63.3678 86.3324 60.1127 90.0435 55.3855C98.5069 44.3935 114.174 29.4593 114.879 18.5491C115.853 4.38373 101.227 0 86.1645 0C75.686 0.261715 64.8381 3.09151 57.4495 5.65959C31.9922 14.4107 16.0394 28.1507 5.91357 43.6083C-4.56489 58.8859 -1.30716 73.5747 21.329 74C38.4237 73.313 49.96 68.6839 61.5804 62.8444C61.6643 62.8444 29.255 71.8572 17.2652 65.2489C15.9386 64.5619 14.6288 63.6132 14.2762 60.9633C14.2762 55.5491 23.4448 49.8895 28.8184 48.0902V38.8156C39.6495 42.5124 52.4285 41.4819 63.3604 33.5813C63.713 34.5301 64.0657 35.7241 63.9817 37.0164H65.8289C66.2655 33.3196 63.713 29.721 59.4813 29.4593C60.7072 30.408 61.5972 31.1768 62.0338 31.8638L61.8659 32.0274L61.7819 32.1092C47.6931 41.7272 34.0241 37.2617 32.7142 37L40.5563 29.5248L38.3565 24.1105C53.9566 18.7944 66.8196 14.9178 88.2131 11.2374L83.4273 7.47524L85.8958 6.01945C98.5741 9.45446 107.121 12.0225 106.685 18.5491C106.517 19.6614 106.063 20.9536 105.358 22.3276C101.58 29.6229 90.4801 41.3837 85.9798 46.4545C83.0747 49.8077 80.1696 52.8992 78.1377 55.9907C75.8539 59.164 74.6953 62.0919 74.6113 64.7418C75.0479 86.3006 140.337 54.6167 153.2 46.2745C134.443 54.0933 114.09 61.5685 91.9746 62.9425ZM106.248 13.3966C106.718 14.2471 106.937 15.294 106.937 16.5208C106.92 15.4085 106.702 14.3453 106.248 13.3966Z" fill="#FF431A"/>
</svg>
