<svg width="154" height="74" viewBox="0 0 154 74" fill="none" xmlns="http://www.w3.org/2000/svg">
<path d="M68.572 73.5791L72.5531 66.5032C54.4118 56.3103 44.5917 45.946 41.6723 33.6646H72.3033V25.5445H40.7511V8.36931H69.0404V0.249268H4.29675V8.36931H32.6172V25.5445H1.11186V33.6646H31.6805C28.761 45.946 18.941 56.3103 0.799622 66.5032L4.78072 73.5791C15.9746 67.2981 29.9163 57.9468 36.6764 43.6861C38.4249 47.3954 40.7355 50.9489 43.6082 54.3154C49.3691 61.0795 57.5342 67.376 68.572 73.5791Z" fill="#FF431A"/>
<path d="M100.14 13.8867C100.093 9.92798 98.8285 6.70178 96.3774 4.33278C91.8343 -0.0779152 84.6839 0.0467677 80.8433 0.10911C80.453 0.10911 80.0939 0.124696 79.7661 0.124696V8.24474C80.1251 8.24474 80.5311 8.24474 80.9838 8.22916C83.6379 8.1824 88.6025 8.10447 90.7102 10.1618C91.0224 10.4579 91.9748 11.393 92.006 13.9958C92.0216 14.8842 92.0216 15.8349 92.0372 16.8168L79.407 24.3446L83.5754 31.3113L92.0684 26.2616C92.0684 29.1449 92.0528 32.1841 92.0528 35.3012L79.407 42.829L83.5754 49.7957L92.0216 44.7616C92.0216 47.0838 92.006 49.406 92.006 51.6659C92.006 53.5206 90.9131 56.4819 89.6017 58.1339C85.8236 62.9031 79.3914 66.5813 79.3289 66.628L83.3412 73.6883C83.6535 73.5012 91.2098 69.1996 95.9871 63.168C98.4226 60.0821 100.14 55.3597 100.14 51.6659C100.156 47.1306 100.234 20.0741 100.14 13.8867Z" fill="#FF431A"/>
<path d="M112.412 19.9339H120.546V13.4035H137.845V19.9339H145.979V13.4035H153.8V5.28348H145.963V0H137.829V5.28348H120.546V0H112.412V5.28348H104.747V13.4035H112.412V19.9339Z" fill="#FF431A"/>
<path d="M153.8 25.3265H104.747V61.9524C104.747 68.5762 110.18 74 116.815 74H141.716C148.352 74 153.785 68.5762 153.785 61.9524V25.3265H153.8ZM125.214 45.5409H112.881V33.4465H125.214V45.5409ZM133.333 33.4465H145.666V45.5409H133.333V33.4465ZM112.881 61.9524V53.6609H125.214V65.8799H116.831C114.692 65.8799 112.881 64.0876 112.881 61.9524ZM141.732 65.8799H133.348V53.6609H145.682V61.9524C145.666 64.0876 143.855 65.8799 141.732 65.8799Z" fill="#FF431A"/>
</svg>
