<svg width="376" height="375" viewBox="0 0 376 375" fill="none" xmlns="http://www.w3.org/2000/svg">
<g clip-path="url(#clip0_599_30060)">
<path d="M344.25 0H31.75C14.4984 0.0213623 0.521362 13.9984 0.5 31.25V281.25C0.5 291.605 8.89539 300 19.25 300H150.5V337.5H125.5C115.145 337.5 106.75 345.895 106.75 356.25C106.75 366.605 115.145 375 125.5 375H250.5C260.855 375 269.25 366.605 269.25 356.25C269.25 345.895 260.855 337.5 250.5 337.5H225.5V300H356.75C367.105 300 375.5 291.605 375.5 281.25V31.25C375.479 13.9984 361.502 0.0213623 344.25 0ZM13 31.25C13 20.8954 21.3954 12.5 31.75 12.5H344.25C354.605 12.5 363 20.8954 363 31.25V237.5H13V31.25ZM256.75 356.25C256.75 359.702 253.952 362.5 250.5 362.5H125.5C122.048 362.5 119.25 359.702 119.25 356.25C119.25 352.798 122.048 350 125.5 350H250.5C253.952 350 256.75 352.798 256.75 356.25ZM213 337.5H163V300H213V337.5ZM363 281.25C363 284.702 360.202 287.5 356.75 287.5H19.25C15.7985 287.5 13 284.702 13 281.25V250H363V281.25Z" fill="#FF431A"/>
<path d="M344.25 25H31.75C28.2985 25 25.5 27.7985 25.5 31.25V218.75C25.5 222.202 28.2985 225 31.75 225H344.25C347.702 225 350.5 222.202 350.5 218.75V31.25C350.5 27.7985 347.702 25 344.25 25ZM338 212.5H38V37.5H338V212.5Z" fill="#FF431A"/>
<path d="M81.75 156.25H113V175C113 178.452 115.798 181.25 119.25 181.25C122.702 181.25 125.5 178.452 125.5 175V156.25H138C141.452 156.25 144.25 153.452 144.25 150C144.25 146.549 141.452 143.75 138 143.75H125.5V75.0001C125.5 71.5485 122.702 68.7501 119.25 68.7501C115.798 68.7501 113 71.5485 113 75.0001V143.75H81.75C78.4877 143.762 75.7686 141.263 75.5 138.013L87.8749 76.2513C88.3998 74.0266 87.6704 71.695 85.9706 70.1661C84.2738 68.6402 81.8782 68.1611 79.7206 68.9179C77.566 69.6747 75.9944 71.5455 75.6251 73.8007L63.1251 136.301C63.0458 136.694 63.0031 137.097 63 137.5C63 147.855 71.3954 156.25 81.75 156.25Z" fill="#FF431A"/>
<path d="M169.25 181.25H206.75C217.105 181.25 225.5 172.855 225.5 162.5V87.5C225.5 77.1454 217.105 68.75 206.75 68.75H169.25C158.895 68.75 150.5 77.1454 150.5 87.5V162.5C150.5 172.855 158.895 181.25 169.25 181.25ZM163 87.5C163 84.0485 165.798 81.25 169.25 81.25H206.75C210.202 81.25 213 84.0485 213 87.5V162.5C213 165.952 210.202 168.75 206.75 168.75H169.25C165.798 168.75 163 165.952 163 162.5V87.5Z" fill="#FF431A"/>
<path d="M256.75 156.25H288V175C288 178.452 290.798 181.25 294.25 181.25C297.702 181.25 300.5 178.452 300.5 175V156.25H313C316.452 156.25 319.25 153.452 319.25 150C319.25 146.548 316.452 143.75 313 143.75H300.5V75C300.5 71.5485 297.702 68.75 294.25 68.75C290.798 68.75 288 71.5485 288 75V143.75H256.75C253.488 143.762 250.769 141.263 250.5 138.013L262.875 76.2512C263.421 72.9279 261.236 69.7693 257.934 69.1071C254.632 68.4479 251.4 70.5231 250.625 73.8007L238.125 136.301C238.046 136.694 238.003 137.097 238 137.5C238 147.855 246.395 156.25 256.75 156.25Z" fill="#FF431A"/>
</g>
<defs>
<clipPath id="clip0_599_30060">
<rect width="375" height="375" fill="white" transform="translate(0.5)"/>
</clipPath>
</defs>
</svg>
